<svg width="30" height="31" viewBox="0 0 30 31" fill="none" xmlns="http://www.w3.org/2000/svg">
<g filter="url(#filter0_d_1502_364)">
<path d="M24.8795 0H5.1219C4.50229 0 4 0.502293 4 1.1219V10.5297C4 11.1493 4.50229 11.6516 5.1219 11.6516H9.17558V20.8795C9.17522 21.1769 9.29311 21.4623 9.50329 21.6727C9.71347 21.8831 9.99869 22.0014 10.2961 22.0014H19.7039C20.3235 22.0014 20.8258 21.4991 20.8258 20.8795V11.6557H24.8795C25.1769 11.6557 25.4621 11.5375 25.6723 11.327C25.8825 11.1166 26.0004 10.8312 26 10.5338V1.1219C26.0004 0.824482 25.8825 0.539118 25.6723 0.328681C25.4621 0.118244 25.1769 0 24.8795 0ZM5.30042 1.30179H14.3498V10.3512H5.30042V1.30179ZM19.5254 20.701H10.476V11.6557H19.5254V20.701ZM24.6996 10.3512H15.6502V1.30179H24.6996V10.3512Z" fill="#2D3748"/>
<path d="M11.4483 7.32455C11.7046 7.56505 12.1055 7.55869 12.354 7.31018C12.6025 7.06167 12.6089 6.66077 12.3684 6.40451L10.2907 4.32686C10.0359 4.07448 9.62542 4.07448 9.37066 4.32686L7.28752 6.40451C7.11436 6.56701 7.04345 6.81092 7.10248 7.04093C7.16151 7.27094 7.34112 7.45055 7.57114 7.50959C7.80115 7.56862 8.04506 7.4977 8.20756 7.32455L9.82519 5.70692L11.4483 7.32455Z" fill="#2D3748"/>
<path d="M18.5573 7.32455L20.1749 5.70692L21.7925 7.32455C22.0488 7.56505 22.4497 7.55869 22.6982 7.31018C22.9467 7.06167 22.9531 6.66077 22.7126 6.40451L20.6349 4.32686C20.3801 4.07448 19.9696 4.07448 19.7149 4.32686L17.6372 6.40451C17.3967 6.66077 17.4031 7.06167 17.6516 7.31018C17.9001 7.55869 18.301 7.56505 18.5573 7.32455Z" fill="#2D3748"/>
<path d="M13.3815 14.6767C13.1249 14.4366 12.724 14.4435 12.4758 14.6924C12.2277 14.9413 12.2219 15.3422 12.4628 15.5981L14.5405 17.6744C14.6624 17.7966 14.8279 17.8654 15.0005 17.8654C15.1731 17.8654 15.3387 17.7966 15.4605 17.6744L17.5382 15.5981C17.7028 15.4338 17.7672 15.1941 17.7072 14.9694C17.6471 14.7446 17.4718 14.569 17.2471 14.5087C17.0225 14.4483 16.7827 14.5123 16.6181 14.6767L15.0005 16.2957L13.3815 14.6767Z" fill="#2D3748"/>
</g>
<defs>
<filter id="filter0_d_1502_364" x="0" y="0" width="30" height="30.0013" filterUnits="userSpaceOnUse" color-interpolation-filters="sRGB">
<feFlood flood-opacity="0" result="BackgroundImageFix"/>
<feColorMatrix in="SourceAlpha" type="matrix" values="0 0 0 0 0 0 0 0 0 0 0 0 0 0 0 0 0 0 127 0" result="hardAlpha"/>
<feOffset dy="4"/>
<feGaussianBlur stdDeviation="2"/>
<feComposite in2="hardAlpha" operator="out"/>
<feColorMatrix type="matrix" values="0 0 0 0 0 0 0 0 0 0 0 0 0 0 0 0 0 0 0.25 0"/>
<feBlend mode="normal" in2="BackgroundImageFix" result="effect1_dropShadow_1502_364"/>
<feBlend mode="normal" in="SourceGraphic" in2="effect1_dropShadow_1502_364" result="shape"/>
</filter>
</defs>
</svg>
