<svg width="12" height="12" viewBox="0 0 12 12" fill="none" xmlns="http://www.w3.org/2000/svg">
<g clip-path="url(#clip0_67_364)">
<path d="M10.838 3.58686C10.8132 3.53872 10.7774 3.49711 10.7336 3.46541C10.6897 3.43371 10.6389 3.41282 10.5855 3.40444C10.532 3.39607 10.4773 3.40044 10.4258 3.41721C10.3743 3.43397 10.3275 3.46266 10.2893 3.50092L8.96926 4.82178C8.90446 4.88564 8.81714 4.92144 8.72616 4.92144C8.63518 4.92144 8.54786 4.88564 8.48306 4.82178L7.91244 4.2503C7.88051 4.21838 7.85518 4.18048 7.8379 4.13877C7.82062 4.09706 7.81173 4.05235 7.81173 4.0072C7.81173 3.96206 7.82062 3.91735 7.8379 3.87564C7.85518 3.83393 7.88051 3.79603 7.91244 3.76411L9.22685 2.44948C9.26626 2.41008 9.29549 2.3617 9.31204 2.30849C9.32859 2.25528 9.33196 2.19885 9.32185 2.14405C9.31175 2.08926 9.28847 2.03774 9.25403 1.99394C9.21959 1.95013 9.17502 1.91536 9.12416 1.89261V1.89261C8.13137 1.44874 6.89215 1.68034 6.11076 2.45593C5.44689 3.11507 5.24902 4.14503 5.56828 5.28176C5.58549 5.34238 5.58559 5.40658 5.56857 5.46725C5.55154 5.52793 5.51805 5.5827 5.47182 5.62551L1.8951 8.89221C1.75576 9.01732 1.64337 9.1695 1.56478 9.33947C1.48619 9.50944 1.44306 9.69364 1.438 9.88084C1.43295 10.068 1.46608 10.2543 1.53538 10.4283C1.60468 10.6022 1.7087 10.7602 1.84108 10.8927C1.97347 11.0251 2.13145 11.1292 2.30538 11.1986C2.47932 11.268 2.66556 11.3012 2.85276 11.2962C3.03995 11.2912 3.22417 11.2482 3.39418 11.1697C3.56419 11.0912 3.71642 10.9788 3.84158 10.8396L7.1433 7.25489C7.1855 7.20925 7.23935 7.17598 7.29905 7.15868C7.35875 7.14138 7.42205 7.1407 7.48211 7.1567C7.80574 7.24538 8.13957 7.29139 8.47512 7.29356C9.19269 7.29356 9.8224 7.06131 10.2766 6.61379C11.1177 5.78514 11.246 4.37964 10.838 3.58686ZM2.88746 10.6043C2.74597 10.6197 2.60316 10.5909 2.47876 10.5217C2.35436 10.4526 2.2545 10.3465 2.19296 10.2181C2.13141 10.0898 2.11122 9.94551 2.13516 9.8052C2.15911 9.66489 2.22601 9.53548 2.32664 9.43481C2.42727 9.33415 2.55666 9.2672 2.69696 9.2432C2.83726 9.21921 2.98155 9.23935 3.10992 9.30085C3.23828 9.36235 3.34439 9.46218 3.41361 9.58655C3.48282 9.71093 3.51172 9.85372 3.49633 9.99522C3.47939 10.1509 3.4098 10.2962 3.29908 10.4069C3.18836 10.5177 3.04315 10.5873 2.88746 10.6043V10.6043Z" fill="#2D3748"/>
</g>
<defs>
<clipPath id="clip0_67_364">
<rect width="11" height="11" fill="white" transform="translate(0.75 0.997192)"/>
</clipPath>
</defs>
</svg>
