<svg width="463" height="242" viewBox="0 0 463 242" fill="none" xmlns="http://www.w3.org/2000/svg">
<mask id="mask0_46_140" style="mask-type:alpha" maskUnits="userSpaceOnUse" x="0" y="0" width="463" height="242">
<rect x="0.75" y="0.75" width="462" height="240.5" rx="15.25" fill="url(#paint0_linear_46_140)" stroke="url(#paint1_radial_46_140)" stroke-width="0.5"/>
</mask>
<g mask="url(#mask0_46_140)">
<path d="M447.866 93.299C387.503 283.338 155.881 396.225 -69.5859 345.262C-295.053 294.298 -428.733 98.8411 -368.37 -91.1981C-308.006 -281.237 -76.3846 -394.124 149.083 -343.161C374.55 -292.197 508.23 -96.7402 447.866 93.299Z" stroke="white" stroke-opacity="0.16"/>
<path d="M342.19 69.4132C297.465 210.22 125.832 293.89 -41.2729 256.118C-208.378 218.347 -307.423 73.4946 -262.698 -67.3121C-217.973 -208.119 -46.3399 -291.789 120.765 -254.017C287.87 -216.246 386.916 -71.3935 342.19 69.4132Z" stroke="white" stroke-opacity="0.16"/>
<path d="M234.168 44.9964C205.428 135.477 95.1173 189.28 -12.3287 164.994C-119.775 140.707 -183.416 47.5846 -154.676 -42.8956C-125.936 -133.376 -15.6257 -187.179 91.8203 -162.893C199.266 -138.607 262.908 -45.4838 234.168 44.9964Z" stroke="white" stroke-opacity="0.16"/>
<path d="M130.847 21.6414C117.398 63.983 65.7431 89.2193 15.3622 77.8315C-35.0187 66.4437 -64.7949 22.8013 -51.3456 -19.5404C-37.8963 -61.8821 13.7584 -87.1183 64.1392 -75.7306C114.52 -64.3428 144.296 -20.7003 130.847 21.6414Z" stroke="white" stroke-opacity="0.16"/>
</g>
<defs>
<linearGradient id="paint0_linear_46_140" x1="1" y1="1" x2="406.5" y2="321.176" gradientUnits="userSpaceOnUse">
<stop stop-color="white" stop-opacity="0.4"/>
<stop offset="1" stop-color="white" stop-opacity="0"/>
</linearGradient>
<radialGradient id="paint1_radial_46_140" cx="0" cy="0" r="1" gradientUnits="userSpaceOnUse" gradientTransform="translate(1 1) rotate(32.9629) scale(513.375 767.594)">
<stop stop-color="white"/>
<stop offset="1" stop-color="white" stop-opacity="0"/>
</radialGradient>
</defs>
</svg>
